<svg width="641" height="534" viewBox="0 0 641 534" fill="none" xmlns="http://www.w3.org/2000/svg">
<path d="M56.576 417.567C66.816 417.567 75.6907 419.487 83.2 423.327C90.7947 427.082 96.64 432.415 100.736 439.327C104.917 446.239 107.008 454.517 107.008 464.159C107.008 473.717 104.917 481.994 100.736 488.991C96.64 495.903 90.7947 501.279 83.2 505.119C75.6907 508.874 66.816 510.751 56.576 510.751C46.336 510.751 37.4187 508.874 29.824 505.119C22.3147 501.279 16.512 495.903 12.416 488.991C8.32 482.079 6.272 473.802 6.272 464.159C6.272 454.602 8.32 446.367 12.416 439.455C16.512 432.458 22.3147 427.082 29.824 423.327C37.4187 419.487 46.336 417.567 56.576 417.567ZM56.576 505.375C62.6347 505.375 67.84 503.711 72.192 500.383C76.544 496.97 79.9147 492.191 82.304 486.047C84.6933 479.903 85.888 472.607 85.888 464.159C85.888 455.711 84.6933 448.415 82.304 442.271C79.9147 436.127 76.544 431.391 72.192 428.063C67.84 424.65 62.6347 422.943 56.576 422.943C50.6027 422.943 45.3973 424.65 40.96 428.063C36.608 431.391 33.2373 436.127 30.848 442.271C28.4587 448.415 27.264 455.711 27.264 464.159C27.264 472.607 28.4587 479.903 30.848 486.047C33.2373 492.191 36.608 496.97 40.96 500.383C45.3973 503.711 50.6027 505.375 56.576 505.375ZM194.402 476.831L195.81 496.159C194.189 498.89 191.927 501.365 189.026 503.583C186.125 505.717 182.583 507.423 178.402 508.703C174.221 509.983 169.357 510.623 163.81 510.623C154.253 510.538 146.018 508.917 139.106 505.759C132.194 502.602 126.861 498.079 123.106 492.191C119.437 486.218 117.602 478.965 117.602 470.431C117.602 462.069 119.437 454.943 123.106 449.055C126.775 443.082 132.066 438.517 138.978 435.359C145.89 432.117 154.167 430.495 163.81 430.495C169.613 430.495 174.989 431.05 179.938 432.159C184.973 433.269 189.154 434.677 192.482 436.383L192.61 456.735H191.586C189.453 448.885 186.082 443.381 181.474 440.223C176.866 437.066 171.405 435.487 165.09 435.487C158.861 435.487 153.655 436.938 149.474 439.839C145.378 442.741 142.263 446.794 140.13 451.999C138.082 457.205 137.058 463.306 137.058 470.303C137.058 477.386 138.082 483.53 140.13 488.735C142.263 493.941 145.335 497.994 149.346 500.895C153.357 503.797 158.178 505.333 163.81 505.503C169.869 505.503 174.861 504.565 178.786 502.687C182.797 500.81 185.954 497.781 188.258 493.599C190.647 489.418 192.354 483.829 193.378 476.831H194.402ZM230.193 432.159V480.415C230.193 488.266 231.985 494.41 235.569 498.847C239.238 503.285 244.316 505.503 250.801 505.503C257.542 505.503 262.748 503.413 266.417 499.231C270.172 495.05 272.092 489.247 272.177 481.823V432.159H280.625V481.055C280.625 490.186 277.809 497.397 272.177 502.687C266.63 507.978 258.737 510.623 248.497 510.623C236.124 510.623 226.908 508.021 220.849 502.815C214.79 497.525 211.761 490.314 211.761 481.183V432.159H230.193ZM212.017 432.159V438.815H211.761C211.676 437.194 211.078 435.871 209.969 434.847C208.86 433.823 207.494 433.311 205.873 433.311C205.873 433.311 205.574 433.311 204.977 433.311C204.38 433.311 204.081 433.311 204.081 433.311V432.159H212.017ZM237.745 432.159V433.311C237.745 433.311 237.446 433.311 236.849 433.311C236.252 433.311 235.953 433.311 235.953 433.311C234.332 433.311 232.966 433.823 231.857 434.847C230.748 435.871 230.193 437.194 230.193 438.815H229.937V432.159H237.745ZM272.433 432.159V438.815H272.177C272.092 437.194 271.494 435.871 270.385 434.847C269.276 433.823 267.953 433.311 266.417 433.311C266.417 433.311 266.118 433.311 265.521 433.311C264.924 433.311 264.625 433.311 264.625 433.311V432.159H272.433ZM288.177 432.159V433.311C288.177 433.311 287.878 433.311 287.281 433.311C286.769 433.311 286.513 433.311 286.513 433.311C284.892 433.311 283.484 433.823 282.289 434.847C281.18 435.871 280.625 437.194 280.625 438.815H280.369V432.159H288.177ZM322.235 432.159V508.959H303.803V432.159H322.235ZM352.059 503.839L355.131 508.959H321.979V503.839H352.059ZM360.507 485.407L355.515 508.959H333.371L337.339 503.839C341.008 503.839 344.251 503.114 347.067 501.663C349.968 500.127 352.443 497.994 354.491 495.263C356.539 492.447 358.118 489.162 359.227 485.407H360.507ZM304.059 500.895L304.699 508.959H295.227V507.679C295.227 507.679 295.483 507.679 295.995 507.679C296.507 507.679 296.806 507.679 296.891 507.679C298.768 507.679 300.347 507.039 301.627 505.759C302.992 504.394 303.718 502.773 303.803 500.895H304.059ZM321.979 440.223V432.159H330.811V433.439C330.726 433.439 330.427 433.439 329.915 433.439C329.488 433.439 329.275 433.439 329.275 433.439C327.398 433.439 325.776 434.079 324.411 435.359C323.046 436.639 322.32 438.261 322.235 440.223H321.979ZM304.059 440.223H303.803C303.718 438.261 302.992 436.639 301.627 435.359C300.262 434.079 298.64 433.439 296.763 433.439C296.678 433.439 296.379 433.439 295.867 433.439C295.44 433.439 295.227 433.439 295.227 433.439V432.159H304.059V440.223ZM404.332 428.703L442.22 508.319H420.588L396.78 452.127L404.332 428.703ZM380.268 500.511C379.329 502.815 379.457 504.607 380.652 505.887C381.847 507.082 383.169 507.679 384.62 507.679H385.644V508.959H360.044V507.679C360.044 507.679 360.215 507.679 360.556 507.679C360.897 507.679 361.068 507.679 361.068 507.679C362.775 507.679 364.567 507.167 366.444 506.143C368.321 505.034 369.857 503.157 371.052 500.511H380.268ZM404.332 428.703L404.588 444.063L376.812 508.575H367.34L397.292 444.191C397.463 443.679 397.847 442.783 398.444 441.503C399.041 440.138 399.681 438.645 400.364 437.023C401.047 435.317 401.687 433.738 402.284 432.287C402.881 430.751 403.223 429.557 403.308 428.703H404.332ZM415.468 483.871V488.863H382.828V483.871H415.468ZM417.388 500.511H438.508C439.788 503.157 441.367 505.034 443.244 506.143C445.121 507.167 446.913 507.679 448.62 507.679C448.62 507.679 448.791 507.679 449.132 507.679C449.473 507.679 449.644 507.679 449.644 507.679V508.959H412.012V507.679H413.036C414.487 507.679 415.809 507.082 417.004 505.887C418.199 504.607 418.327 502.815 417.388 500.511ZM476.723 432.159H490.547C494.046 432.159 497.459 432.543 500.787 433.311C504.115 433.994 507.102 435.146 509.747 436.767C512.392 438.303 514.483 440.437 516.019 443.167C517.64 445.813 518.451 449.141 518.451 453.151C518.451 456.138 517.811 459.125 516.531 462.111C515.336 465.013 513.416 467.53 510.771 469.663C508.211 471.797 504.84 473.205 500.659 473.887C503.134 474.655 505.48 476.149 507.699 478.367C510.003 480.586 511.795 482.677 513.075 484.639C513.416 485.322 514.014 486.431 514.867 487.967C515.72 489.418 516.787 491.125 518.067 493.087C519.432 494.965 520.84 496.927 522.291 498.975C523.998 501.279 525.491 503.071 526.771 504.351C528.051 505.546 529.374 506.399 530.739 506.911C532.104 507.423 533.683 507.679 535.475 507.679V508.959H524.723C520.115 508.959 516.19 508.618 512.947 507.935C509.79 507.253 507.016 506.015 504.627 504.223C502.323 502.346 500.19 499.829 498.227 496.671C497.459 495.562 496.648 494.239 495.795 492.703C494.942 491.082 494.088 489.461 493.235 487.839C492.382 486.218 491.614 484.639 490.931 483.103C490.334 481.567 489.907 480.287 489.651 479.263C488.542 476.533 487.262 474.57 485.811 473.375C484.446 472.095 483.166 471.455 481.971 471.455V470.303C481.971 470.303 482.27 470.303 482.867 470.303C483.464 470.303 484.232 470.303 485.171 470.303C486.963 470.303 488.712 470.005 490.419 469.407C492.211 468.725 493.832 467.487 495.283 465.695C496.734 463.818 497.8 461.087 498.483 457.503C498.654 456.991 498.782 456.266 498.867 455.327C499.038 454.389 499.08 453.322 498.995 452.127C498.824 448.97 498.227 446.453 497.203 444.575C496.264 442.613 495.07 441.162 493.619 440.223C492.168 439.199 490.675 438.517 489.139 438.175C487.688 437.749 486.408 437.535 485.299 437.535C483.678 437.45 482.184 437.45 480.819 437.535C479.539 437.535 478.558 437.493 477.875 437.407C477.79 437.407 477.662 436.981 477.491 436.127C477.32 435.189 477.15 434.293 476.979 433.439C476.808 432.586 476.723 432.159 476.723 432.159ZM478.003 432.159V508.959H459.443V432.159H478.003ZM459.827 500.895L460.339 508.959H451.123V507.679C451.208 507.679 451.422 507.679 451.763 507.679C452.19 507.679 452.488 507.679 452.659 507.679C454.536 507.679 456.115 507.039 457.395 505.759C458.76 504.394 459.486 502.773 459.571 500.895H459.827ZM459.827 440.095H459.571C459.486 438.133 458.76 436.554 457.395 435.359C456.115 434.079 454.579 433.439 452.787 433.439C452.531 433.439 452.19 433.439 451.763 433.439C451.422 433.439 451.208 433.439 451.123 433.439V432.159H460.339L459.827 440.095ZM477.747 500.895H478.003C478.003 503.029 478.728 504.693 480.179 505.887C481.715 507.082 483.336 507.679 485.043 507.679C485.043 507.679 485.214 507.679 485.555 507.679C485.896 507.679 486.152 507.679 486.323 507.679V508.959H477.107L477.747 500.895ZM561.869 432.159V508.959H543.437V432.159H561.869ZM543.821 500.895V508.959H534.477V507.679C534.477 507.679 534.733 507.679 535.245 507.679C535.757 507.679 536.056 507.679 536.141 507.679C538.104 507.679 539.81 507.039 541.261 505.759C542.712 504.394 543.437 502.773 543.437 500.895H543.821ZM561.613 500.895H561.869C561.954 502.773 562.68 504.394 564.045 505.759C565.496 507.039 567.245 507.679 569.293 507.679C569.293 507.679 569.506 507.679 569.933 507.679C570.445 507.679 570.744 507.679 570.829 507.679V508.959H561.613V500.895ZM561.613 440.223V432.159H570.829L570.701 433.439C570.701 433.439 570.488 433.439 570.061 433.439C569.634 433.439 569.378 433.439 569.293 433.439C567.245 433.439 565.496 434.079 564.045 435.359C562.68 436.639 561.954 438.261 561.869 440.223H561.613ZM543.821 440.223H543.437C543.437 438.261 542.712 436.639 541.261 435.359C539.81 434.079 538.061 433.439 536.013 433.439C536.013 433.439 535.757 433.439 535.245 433.439C534.733 433.439 534.477 433.439 534.477 433.439V432.159H543.821V440.223ZM605.589 430.495C607.296 430.495 609.344 430.581 611.733 430.751C614.208 430.922 616.64 431.135 619.029 431.391C621.418 431.562 623.509 431.818 625.301 432.159C627.178 432.415 628.458 432.671 629.141 432.927L627.477 448.543H626.325C626.325 444.618 624.96 441.503 622.229 439.199C619.498 436.895 615.573 435.743 610.453 435.743C606.357 435.743 603.029 436.639 600.469 438.431C597.994 440.223 596.672 442.613 596.501 445.599C596.33 447.135 596.586 448.543 597.269 449.823C598.037 451.018 599.061 452.085 600.341 453.023C601.706 453.962 603.2 454.901 604.821 455.839L624.917 468.255C628.33 469.962 631.018 472.437 632.981 475.679C634.944 478.922 635.797 482.847 635.541 487.455C635.285 492.234 633.877 496.373 631.317 499.871C628.842 503.37 625.386 506.058 620.949 507.935C616.597 509.727 611.434 510.623 605.461 510.623C601.792 510.623 598.378 510.325 595.221 509.727C592.064 509.13 589.333 508.319 587.029 507.295C584.81 506.271 583.104 505.119 581.909 503.839C581.226 502.133 580.928 500.085 581.013 497.695C581.098 495.221 581.482 492.789 582.165 490.399C582.848 487.925 583.701 485.877 584.725 484.255H585.749C585.493 488.095 586.176 491.637 587.797 494.879C589.504 498.122 591.978 500.725 595.221 502.687C598.464 504.565 602.346 505.503 606.869 505.503C611.818 505.503 615.53 504.351 618.005 502.047C620.48 499.743 621.717 497.055 621.717 493.983C621.717 491.679 620.949 489.631 619.413 487.839C617.962 485.962 615.53 484.127 612.117 482.335L593.941 470.815C589.674 468.597 586.56 465.653 584.597 461.983C582.72 458.314 582.037 454.303 582.549 449.951C582.976 445.855 584.17 442.357 586.133 439.455C588.181 436.554 590.869 434.335 594.197 432.799C597.525 431.263 601.322 430.495 605.589 430.495ZM629.141 431.647L629.013 433.951H615.317V431.647H629.141Z" fill="black"/>
<path d="M509.222 193.611C509.222 297.778 424.778 382.222 320.611 382.222C216.444 382.222 132 297.778 132 193.611C132 151.492 145.806 112.595 169.14 81.2043C179.212 67.6512 191.057 55.5047 204.335 45.0933C218.723 33.809 234.793 24.5778 252.102 17.8309C264.313 13.0618 277.144 9.53745 290.439 7.40345C300.263 5.81911 310.34 5 320.611 5C330.882 5 340.954 5.81911 350.778 7.40345C364.072 9.53745 376.903 13.0618 389.115 17.8309C406.424 24.5724 422.493 33.809 436.882 45.0879C450.16 55.4993 462.005 67.6512 472.077 81.1989C495.416 112.589 509.222 151.486 509.222 193.611Z" stroke="black" stroke-width="10" stroke-miterlimit="10"/>
<path d="M350.778 7.40345V187.144C350.778 195.47 347.399 203.015 341.94 208.474C336.481 213.933 328.937 217.311 320.611 217.311C303.949 217.311 290.439 203.801 290.439 187.144V7.40345C300.263 5.81911 310.34 5 320.611 5C330.882 5 340.954 5.81911 350.778 7.40345Z" stroke="black" stroke-width="10" stroke-linecap="round" stroke-linejoin="round"/>
<path d="M350.339 7.40345V187.144C350.339 195.47 346.961 203.015 341.502 208.474C336.043 213.933 328.498 217.311 320.172 217.311C303.51 217.311 290 203.801 290 187.144V7.40345C299.824 5.81911 309.901 5 320.172 5C330.444 5 340.515 5.81911 350.339 7.40345Z" stroke="black" stroke-width="10" stroke-linecap="round" stroke-linejoin="round"/>
<path d="M350.443 7.40345V187.144C350.443 195.47 347.064 203.015 341.605 208.474C336.146 213.933 328.602 217.311 320.276 217.311C303.614 217.311 290.104 203.801 290.104 187.144V7.40345C299.928 5.81911 310.005 5 320.276 5C330.547 5 340.619 5.81911 350.443 7.40345Z" stroke="black" stroke-width="10" stroke-linecap="round" stroke-linejoin="round"/>
<path d="M436.547 45.0879V180.187C436.547 212.294 423.533 241.362 402.494 262.4C381.451 283.444 352.383 296.458 320.276 296.458C256.057 296.458 204 244.401 204 180.187V45.0933C218.388 33.809 234.458 24.5778 251.767 17.8309V187.171C251.767 225.007 282.441 255.68 320.276 255.68C339.196 255.68 356.322 248.012 368.717 235.612C381.111 223.218 388.78 206.086 388.78 187.171V17.8309C406.089 24.5724 422.158 33.809 436.547 45.0879Z" stroke="black" stroke-width="10" stroke-linecap="round" stroke-linejoin="round"/>
<path d="M388.974 17.8309V187.171C388.974 206.086 381.306 223.218 368.912 235.612C356.517 248.012 339.391 255.68 320.471 255.68C282.636 255.68 251.962 225.007 251.962 187.171V17.8309C264.173 13.0618 277.004 9.53744 290.299 7.40344V187.144C290.299 203.801 303.808 217.311 320.471 217.311C328.797 217.311 336.341 213.933 341.8 208.474C347.259 203.015 350.638 195.47 350.638 187.144V7.40344C363.932 9.53744 376.763 13.0618 388.974 17.8309Z" stroke="black" stroke-width="10" stroke-linecap="round" stroke-linejoin="round"/>
<path d="M471.936 81.1989V184.445C471.936 226.273 454.983 264.141 427.575 291.554C400.162 318.962 362.294 335.915 320.471 335.915C236.814 335.915 169 268.102 169 184.445V81.2043" stroke="black" stroke-width="10" stroke-linecap="round" stroke-linejoin="round"/>
</svg>
