<?xml version="1.0" encoding="UTF-8"?>
<svg xmlns="http://www.w3.org/2000/svg" viewBox="0 0 1080 1080">
  <defs>
    <style>
      .cls-1 {
        fill: #fff;
        stroke-miterlimit: 10;
      }

      .cls-1, .cls-2 {
        stroke: #211915;
        stroke-width: 10px;
      }

      .cls-2 {
        fill: none;
        stroke-linecap: round;
        stroke-linejoin: round;
      }
    </style>
  </defs>
  <g id="Camada_2" data-name="Camada 2">
    <path class="cls-1" d="m867.63,515.23c0,193.3-156.7,350-350,350s-350-156.7-350-350c0-78.16,25.62-150.34,68.92-208.59,18.69-25.15,40.67-47.69,65.31-67.01,26.7-20.94,56.52-38.07,88.64-50.59,22.66-8.85,46.47-15.39,71.14-19.35,18.23-2.94,36.93-4.46,55.99-4.46s37.75,1.52,55.98,4.46c24.67,3.96,48.48,10.5,71.14,19.35,32.12,12.51,61.94,29.65,88.64,50.58,24.64,19.32,46.62,41.87,65.31,67.01,43.31,58.25,68.93,130.43,68.93,208.6Z"/>
    <path class="cls-2" d="m573.61,169.69v333.54c0,15.45-6.27,29.45-16.4,39.58s-24.13,16.4-39.58,16.4c-30.92,0-55.99-25.07-55.99-55.98V169.69c18.23-2.94,36.93-4.46,55.99-4.46s37.75,1.52,55.98,4.46Z"/>
  </g>
  <g id="Camada_2_cópia" data-name="Camada 2 cópia">
    <path class="cls-2" d="m573.61,169.69v333.54c0,15.45-6.27,29.45-16.4,39.58s-24.13,16.4-39.58,16.4c-30.92,0-55.99-25.07-55.99-55.98V169.69c18.23-2.94,36.93-4.46,55.99-4.46s37.75,1.52,55.98,4.46Z"/>
  </g>
  <g id="Camada_2_cópia_cópia" data-name="Camada 2 cópia cópia">
    <path class="cls-2" d="m573.61,169.69v333.54c0,15.45-6.27,29.45-16.4,39.58s-24.13,16.4-39.58,16.4c-30.92,0-55.99-25.07-55.99-55.98V169.69c18.23-2.94,36.93-4.46,55.99-4.46s37.75,1.52,55.98,4.46Z"/>
    <path class="cls-2" d="m733.39,239.62v250.7c0,59.58-24.15,113.52-63.19,152.56-39.05,39.05-92.99,63.2-152.57,63.2-119.17,0-215.77-96.6-215.77-215.76v-250.69c26.7-20.94,56.52-38.07,88.64-50.59v314.24c0,70.21,56.92,127.13,127.13,127.13,35.11,0,66.89-14.23,89.89-37.24,23-23,37.23-54.79,37.23-89.89V189.04c32.12,12.51,61.94,29.65,88.64,50.58Z"/>
  </g>
  <g id="Camada_2_cópia_cópia_cópia" data-name="Camada 2 cópia cópia cópia">
    <path class="cls-2" d="m644.75,189.04v314.24c0,35.1-14.23,66.89-37.23,89.89-23,23.01-54.78,37.24-89.89,37.24-70.21,0-127.13-56.92-127.13-127.13V189.04c22.66-8.85,46.47-15.39,71.14-19.35v333.54c0,30.91,25.07,55.98,55.99,55.98,15.45,0,29.45-6.27,39.58-16.4s16.4-24.13,16.4-39.58V169.69c24.67,3.96,48.48,10.5,71.14,19.35Z"/>
    <path class="cls-2" d="m798.7,306.63v191.59c0,77.62-31.46,147.89-82.32,198.76-50.87,50.86-121.14,82.32-198.75,82.32-155.24,0-281.08-125.84-281.08-281.08v-191.58"/>
  </g>
</svg>